<svg width="231" height="50" viewBox="0 0 231 50" fill="none" xmlns="http://www.w3.org/2000/svg">
<path d="M82.556 9.8L74.756 28H69.686L61.912 9.8H67.476L72.416 21.656L77.46 9.8H82.556ZM83.7683 13.908H88.7083V28H83.7683V13.908ZM86.2383 12.348C85.337 12.348 84.609 12.0967 84.0543 11.594C83.4996 11.0913 83.2223 10.4673 83.2223 9.722C83.2223 8.97667 83.4996 8.35267 84.0543 7.85C84.609 7.34733 85.337 7.096 86.2383 7.096C87.1396 7.096 87.8676 7.33867 88.4223 7.824C88.977 8.292 89.2543 8.89867 89.2543 9.644C89.2543 10.424 88.977 11.074 88.4223 11.594C87.8676 12.0967 87.1396 12.348 86.2383 12.348ZM101.097 13.674C102.847 13.674 104.251 14.194 105.309 15.234C106.383 16.274 106.921 17.8427 106.921 19.94V28H101.981V20.746C101.981 18.822 101.209 17.86 99.6667 17.86C98.8173 17.86 98.1327 18.1373 97.6127 18.692C97.11 19.2467 96.8587 20.0787 96.8587 21.188V28H91.9187V13.908H96.6247V15.442C97.1793 14.87 97.838 14.4367 98.6007 14.142C99.3633 13.83 100.195 13.674 101.097 13.674ZM124.614 13.908L118.53 28.572C117.82 30.3053 116.953 31.5187 115.93 32.212C114.908 32.9227 113.66 33.278 112.186 33.278C111.441 33.278 110.687 33.1567 109.924 32.914C109.179 32.6887 108.572 32.3853 108.104 32.004L109.82 28.546C110.098 28.806 110.427 29.0053 110.808 29.144C111.207 29.3 111.606 29.378 112.004 29.378C112.472 29.378 112.854 29.2827 113.148 29.092C113.46 28.9013 113.72 28.598 113.928 28.182L107.896 13.908H112.966L116.424 22.514L119.908 13.908H124.614ZM125.891 8.708H130.831V28H125.891V8.708ZM146.73 28.234C145.551 28.234 144.39 28.104 143.246 27.844C142.102 27.5667 141.183 27.2113 140.49 26.778L141.972 23.398C142.613 23.7967 143.376 24.1173 144.26 24.36C145.144 24.5853 146.019 24.698 146.886 24.698C147.683 24.698 148.247 24.62 148.576 24.464C148.923 24.2907 149.096 24.048 149.096 23.736C149.096 23.424 148.888 23.2073 148.472 23.086C148.073 22.9473 147.432 22.8173 146.548 22.696C145.421 22.5573 144.459 22.3753 143.662 22.15C142.882 21.9247 142.206 21.5087 141.634 20.902C141.062 20.2953 140.776 19.446 140.776 18.354C140.776 17.4527 141.045 16.6553 141.582 15.962C142.119 15.2513 142.899 14.6967 143.922 14.298C144.962 13.882 146.201 13.674 147.64 13.674C148.663 13.674 149.677 13.778 150.682 13.986C151.687 14.194 152.528 14.4887 153.204 14.87L151.722 18.224C150.474 17.5307 149.122 17.184 147.666 17.184C146.886 17.184 146.314 17.2793 145.95 17.47C145.586 17.6433 145.404 17.8773 145.404 18.172C145.404 18.5013 145.603 18.7353 146.002 18.874C146.401 18.9953 147.059 19.1253 147.978 19.264C149.139 19.4373 150.101 19.6367 150.864 19.862C151.627 20.0873 152.285 20.5033 152.84 21.11C153.412 21.6993 153.698 22.5313 153.698 23.606C153.698 24.49 153.429 25.2873 152.892 25.998C152.355 26.6913 151.557 27.2373 150.5 27.636C149.46 28.0347 148.203 28.234 146.73 28.234ZM165.005 13.674C166.756 13.674 168.16 14.194 169.217 15.234C170.292 16.274 170.829 17.8427 170.829 19.94V28H165.889V20.746C165.889 18.822 165.118 17.86 163.575 17.86C162.726 17.86 162.041 18.1373 161.521 18.692C161.018 19.2467 160.767 20.0787 160.767 21.188V28H155.827V8.708H160.767V15.208C161.304 14.7053 161.937 14.324 162.665 14.064C163.393 13.804 164.173 13.674 165.005 13.674ZM181.206 28.234C179.698 28.234 178.337 27.922 177.124 27.298C175.91 26.674 174.957 25.8073 174.264 24.698C173.588 23.5887 173.25 22.332 173.25 20.928C173.25 19.5413 173.588 18.2933 174.264 17.184C174.957 16.0747 175.902 15.2167 177.098 14.61C178.311 13.986 179.68 13.674 181.206 13.674C182.731 13.674 184.1 13.986 185.314 14.61C186.527 15.2167 187.472 16.0747 188.148 17.184C188.824 18.276 189.162 19.524 189.162 20.928C189.162 22.332 188.824 23.5887 188.148 24.698C187.472 25.8073 186.527 26.674 185.314 27.298C184.1 27.922 182.731 28.234 181.206 28.234ZM181.206 24.308C182.072 24.308 182.783 24.0133 183.338 23.424C183.892 22.8173 184.17 21.9853 184.17 20.928C184.17 19.888 183.892 19.0733 183.338 18.484C182.783 17.8947 182.072 17.6 181.206 17.6C180.339 17.6 179.628 17.8947 179.074 18.484C178.519 19.0733 178.242 19.888 178.242 20.928C178.242 21.9853 178.519 22.8173 179.074 23.424C179.628 24.0133 180.339 24.308 181.206 24.308ZM200.316 13.674C201.599 13.674 202.76 13.9773 203.8 14.584C204.857 15.1733 205.689 16.0227 206.296 17.132C206.92 18.224 207.232 19.498 207.232 20.954C207.232 22.41 206.92 23.6927 206.296 24.802C205.689 25.894 204.857 26.7433 203.8 27.35C202.76 27.9393 201.599 28.234 200.316 28.234C198.669 28.234 197.361 27.74 196.39 26.752V33.044H191.45V13.908H196.156V15.312C197.075 14.22 198.461 13.674 200.316 13.674ZM199.276 24.308C200.143 24.308 200.853 24.0133 201.408 23.424C201.963 22.8173 202.24 21.994 202.24 20.954C202.24 19.914 201.963 19.0993 201.408 18.51C200.853 17.9033 200.143 17.6 199.276 17.6C198.409 17.6 197.699 17.9033 197.144 18.51C196.589 19.0993 196.312 19.914 196.312 20.954C196.312 21.994 196.589 22.8173 197.144 23.424C197.699 24.0133 198.409 24.308 199.276 24.308Z" fill="#4B4B4B"/>
<rect width="52.4195" height="50" rx="11" fill="#4B4B4B"/>
<path d="M25.7838 22C24.1487 22 22.8108 23.35 22.8108 25C22.8108 26.65 24.1487 28 25.7838 28C27.4189 28 28.7568 26.65 28.7568 25C28.7568 23.35 27.4189 22 25.7838 22ZM25.7838 26C25.2388 26 24.7928 25.55 24.7928 25C24.7928 24.45 25.2388 24 25.7838 24C26.3289 24 26.7748 24.45 26.7748 25C26.7748 25.55 26.3289 26 25.7838 26ZM25.7838 1C12.673 1 2 11.77 2 25C2 38.23 12.673 49 25.7838 49C38.8946 49 49.5676 38.23 49.5676 25C49.5676 11.77 38.8946 1 25.7838 1ZM25.7838 46C14.3081 46 4.97298 36.58 4.97298 25H6.95496C6.95496 35.48 15.3982 44 25.7838 44V46ZM25.7838 42.67C16.1315 42.67 8.27298 34.74 8.27298 25H10.255C10.255 33.64 17.2216 40.67 25.7838 40.67V42.67ZM25.7838 39.33C17.955 39.33 11.5829 32.9 11.5829 25H13.5649C13.5649 31.8 19.0451 37.33 25.7838 37.33V39.33ZM25.7838 34C20.8685 34 16.8649 29.96 16.8649 25C16.8649 20.04 20.8685 16 25.7838 16C30.6991 16 34.7027 20.04 34.7027 25C34.7027 29.96 30.6991 34 25.7838 34ZM38.0027 25C38.0027 18.2 32.5226 12.67 25.7838 12.67V10.67C33.6126 10.67 39.9847 17.1 39.9847 25H38.0027ZM41.3127 25C41.3127 16.36 34.346 9.33 25.7838 9.33V7.33C35.4361 7.33 43.2946 15.26 43.2946 25H41.3127ZM25.7838 6V4C37.2595 4 46.5946 13.42 46.5946 25H44.6127C44.6127 14.52 36.1694 6 25.7838 6Z" fill="#FC8800"/>
</svg>
